<svg xmlns="http://www.w3.org/2000/svg" viewBox="0 0 1440 320"><path fill="#d8fbd8" fill-opacity="1" d="M0,160L26.7,149.3C53.3,139,107,117,160,133.3C213.3,149,267,203,320,202.7C373.3,203,427,149,480,154.7C533.3,160,587,224,640,245.3C693.3,267,747,245,800,240C853.3,235,907,245,960,234.7C1013.3,224,1067,192,1120,181.3C1173.3,171,1227,181,1280,170.7C1333.3,160,1387,128,1413,112L1440,96L1440,320L1413.3,320C1386.7,320,1333,320,1280,320C1226.7,320,1173,320,1120,320C1066.7,320,1013,320,960,320C906.7,320,853,320,800,320C746.7,320,693,320,640,320C586.7,320,533,320,480,320C426.7,320,373,320,320,320C266.7,320,213,320,160,320C106.7,320,53,320,27,320L0,320Z"></path></svg>